<svg xmlns:rdf="http://www.w3.org/1999/02/22-rdf-syntax-ns#" xmlns="http://www.w3.org/2000/svg" version="1.1" xmlns:cc="http://creativecommons.org/ns#" xmlns:dc="http://purl.org/dc/elements/1.1/" viewBox="0 0 48 48">
 <path d="m25 36c0 5-4 10-8 10s-7.6-5-7.6-10c0-3.4 1.2-6.4 3.1-8.3v-17c0-3.5 2.1-6.3 4.6-6.3s4.6 2.8 4.6 6.3v17c1.9 1.9 3.1 4.9 3.1 8.3m-9.2-19v13c-1.8 0.86-3.1 3.2-3.1 5.9 0 3.5 2.1 6.3 4.6 6.3s4.6-2.8 4.6-6.3c0-2.7-1.3-5-3.1-5.9v-13h-3.1"/>
 <g stroke-linejoin="round" stroke="#000">
  <rect height="1.5" width="6.4" y="10" x="3.5" stroke-width="2.2"/>
  <rect height="1.7" width="4.5" y="17" x="5.4" stroke-width="2"/>
  <rect height="1.5" width="6.4" y="23" x="3.5" stroke-width="2.2"/>
 </g>
 <ellipse stroke-linejoin="round" rx="1.8" ry="2.7" stroke="#000" cy="24" cx="25" stroke-width="1.3" fill="none"/>
 <text style="word-spacing:0px;letter-spacing:0px" xml:space="preserve" transform="scale(.86 1.2)" font-size="72px" y="35.224888" x="32.058411" font-family="sans-serif" line-height="50%" fill="#000000"><tspan font-weight="bold" font-size="18px" line-height="50%" y="35.224888" x="32.058411" font-family="&apos;PT Mono&apos;">Hg</tspan></text>
</svg>
